<?xml version="1.0" encoding="UTF-8"?><svg id="Layer_2" xmlns="http://www.w3.org/2000/svg" viewBox="0 0 850 632.27"><g id="Layer_1-2"><path d="M116.75,413.71c6.77-13.76,15.61-26,26.53-36.78,8.11-8,17.26-14.45,26.95-20.46,10.09-6.26,20.69-11.05,32.07-13.76,3.85-.92,4.41-2.03,4.38-5.38-.15-17.15,1.76-34.08,5.33-50.89,4.56-21.48,12.1-42.06,23.12-60.73,21.55-36.51,50.62-65.87,88.42-86.2,17.87-9.61,36.78-16.55,56.1-21.65,11.63-3.07,24.16-4.33,36.5-4.52,.18-.01,.36-.01,.55-.02C378.48,45.67,305.92,0,222.69,0,99.7,0,0,99.7,0,222.69c0,83.76,46.25,156.71,114.6,194.73,.16-.46,.33-.91,.49-1.37,.56-.77,1.25-1.49,1.66-2.33Z"/><path d="M837.12,382.58c-12.72-33.12-34.56-59.43-63.01-80.32-10.81-7.93-22.7-14.17-34.93-19.56-22.26-9.81-45.75-15.34-70.02-13.94-11.85,.68-17.3-2.89-21.85-13.59-8.52-20.03-21.75-37.36-36.93-52.83-8.92-9.09-18.26-17.83-28.76-25.46-18.97-13.79-39.03-24.95-61.31-32.29-27.21-8.96-55.04-12.79-83.61-11.27-.18,0-.36,.01-.55,.02-12.34,.19-24.87,1.46-36.5,4.52-19.33,5.1-38.24,12.04-56.1,21.65-37.8,20.33-66.86,49.69-88.42,86.2-11.02,18.67-18.57,39.24-23.12,60.73-3.57,16.81-5.47,33.74-5.33,50.89,.03,3.35-.53,4.46-4.38,5.38-11.39,2.71-21.98,7.5-32.07,13.76-9.69,6.01-18.84,12.45-26.95,20.46-10.92,10.78-19.76,23.02-26.53,36.78-.42,.85-1.1,1.56-1.66,2.33-.16,.46-.32,.91-.49,1.37-3.28,9.28-6.85,18.48-9.65,27.91-3.39,11.38-2.86,23.22-2.45,34.94,.72,20.61,6.57,40,15.54,58.34,1.53,3.13,2.51,6.74,5.15,9.77,6.4,7.37,12.83,14.73,19.19,22.12,6.22,7.23,13.54,12.86,20.84,18.4,10.89,8.27,23.91,12.9,36.84,17.23,14.61,4.89,29.78,6.07,45.08,6.07,132.42,0,264.84-.08,397.26,.08,21.69,.03,43.03-1.37,63.42-9.48,6.82-2.71,13.69-5.39,20.27-8.63,15.27-7.52,29.55-16.46,42.41-27.88,7.42-6.59,14.28-13.57,20.66-21.04,8.15-9.55,14.74-20.33,20.58-31.36,5.58-10.54,11.08-21.58,13.78-33.07,3.2-13.62,5.21-27.59,6.13-41.85,1.73-26.72-3.13-51.89-12.53-76.37Z"/></g></svg>