<?xml version="1.0" encoding="UTF-8"?><svg id="Layer_2" xmlns="http://www.w3.org/2000/svg" xmlns:xlink="http://www.w3.org/1999/xlink" viewBox="0 0 717.48 529.27"><defs><linearGradient id="linear-gradient" x1="192.5" y1="24.32" x2="192.5" y2="295.83" gradientTransform="matrix(1, 0, 0, 1, 0, 0)" gradientUnits="userSpaceOnUse"><stop offset="0" stop-color="#ffc100"/><stop offset=".83" stop-color="#ffe400"/></linearGradient><linearGradient id="linear-gradient-2" x1="351.55" y1="97.41" x2="421.19" y2="492.34" gradientTransform="matrix(1, 0, 0, 1, 0, 0)" gradientUnits="userSpaceOnUse"><stop offset="0" stop-color="#fff" stop-opacity=".7"/><stop offset="1" stop-color="#fff"/></linearGradient></defs><g id="Layer_1-2"><circle cx="192.5" cy="192.5" r="192.5" style="fill:url(#linear-gradient);"/><path d="M359.74,97.98c24.87-1.38,49.08,1.93,72.75,9.72,19.26,6.35,36.59,16,52.99,27.92,9.08,6.6,17.15,14.15,24.86,22.01,13.12,13.38,24.57,28.36,31.93,45.67,3.93,9.25,8.64,12.34,18.89,11.74,20.98-1.21,41.28,3.58,60.53,12.05,10.57,4.66,20.86,10.05,30.2,16.91,24.59,18.05,43.48,40.8,54.47,69.43,8.13,21.16,12.33,42.92,10.83,66.02-.8,12.33-2.54,24.4-5.3,36.18-2.33,9.93-7.09,19.47-11.91,28.59-5.04,9.53-10.74,18.85-17.79,27.11-5.51,6.46-11.45,12.5-17.86,18.19-11.12,9.87-23.46,17.6-36.66,24.1-5.69,2.8-11.62,5.12-17.52,7.46-17.63,7.01-36.07,8.22-54.82,8.2-114.47-.13-228.94-.07-343.41-.07-13.23,0-26.34-1.01-38.97-5.24-11.18-3.74-22.43-7.75-31.84-14.9-6.31-4.79-12.64-9.66-18.01-15.91-5.49-6.39-11.05-12.75-16.59-19.12-2.28-2.62-3.13-5.74-4.45-8.45-7.75-15.86-12.81-32.62-13.43-50.43-.36-10.13-.82-20.36,2.12-30.2,2.55-8.55,5.82-16.88,8.77-25.31,.49-.67,1.08-1.29,1.44-2.02,5.85-11.89,13.49-22.48,22.93-31.8,7.01-6.92,14.92-12.49,23.3-17.68,8.73-5.41,17.88-9.55,27.73-11.89,3.33-.79,3.81-1.75,3.79-4.65-.13-14.83,1.52-29.46,4.6-43.99,3.94-18.57,10.46-36.36,19.99-52.49,18.63-31.56,43.75-56.94,76.43-74.52,15.44-8.31,31.79-14.31,48.5-18.71,10.05-2.65,20.89-3.74,31.55-3.91Z" style="fill:url(#linear-gradient-2);"/></g></svg>