<?xml version="1.0" standalone="no"?>
<!DOCTYPE svg PUBLIC "-//W3C//DTD SVG 20010904//EN"
 "http://www.w3.org/TR/2001/REC-SVG-20010904/DTD/svg10.dtd">
<svg version="1.0" xmlns="http://www.w3.org/2000/svg"
 width="1080.000000pt" height="1080.000000pt" viewBox="0 0 1080.000000 1080.000000"
 preserveAspectRatio="xMidYMid meet">
<metadata>
Created by potrace 1.14, written by Peter Selinger 2001-2017
</metadata>
<g transform="translate(0.000000,1080.000000) scale(0.100000,-0.100000)"
fill="#000000" stroke="none">
<path d="M3025 8579 c-575 -57 -1074 -288 -1460 -674 -87 -86 -107 -108 -185
-204 -195 -239 -375 -634 -425 -931 -3 -19 -8 -48 -11 -65 -26 -147 -26 -508
0 -656 52 -301 143 -545 296 -794 38 -62 144 -212 159 -225 3 -3 30 -34 60
-68 111 -131 266 -270 419 -376 71 -50 218 -136 231 -136 5 0 33 39 61 86 113
192 253 337 452 467 122 80 276 150 387 177 28 7 54 17 58 23 3 6 7 45 9 86
18 593 221 1067 634 1482 183 184 358 313 578 426 201 104 449 191 657 233 91
18 109 20 210 26 55 3 102 8 104 10 6 6 -98 159 -169 248 -174 219 -436 442
-664 565 -74 40 -180 95 -186 96 -3 0 -27 11 -55 24 -137 62 -437 144 -605
166 -25 3 -61 8 -80 11 -57 9 -399 11 -475 3z"/>
<path d="M5487 7164 c-1 -1 -38 -5 -82 -8 -44 -4 -111 -14 -150 -22 -38 -8
-83 -18 -98 -20 -41 -8 -280 -87 -372 -124 -118 -47 -306 -147 -425 -228 -463
-311 -794 -776 -914 -1282 -25 -104 -29 -125 -41 -207 -3 -23 -8 -57 -11 -75
-2 -18 -6 -89 -9 -157 -2 -68 -9 -129 -14 -134 -6 -6 -48 -21 -93 -34 -149
-43 -399 -181 -513 -284 -200 -182 -306 -337 -394 -579 -29 -80 -55 -154 -57
-165 -2 -11 -8 -42 -13 -70 -10 -51 -8 -304 3 -365 3 -19 8 -46 10 -60 31
-180 149 -453 234 -545 26 -27 85 -92 132 -143 46 -51 129 -127 183 -169 94
-72 254 -162 288 -163 8 0 19 -4 25 -9 11 -11 188 -65 262 -80 29 -6 83 -14
120 -18 89 -10 4531 -10 4647 0 125 11 345 59 390 86 6 3 15 6 20 7 21 4 233
98 293 130 109 59 221 132 291 189 247 202 378 366 520 650 27 55 57 116 65
136 16 37 52 184 62 248 3 20 7 47 10 61 20 102 26 412 11 520 -33 244 -137
525 -266 722 -173 265 -464 520 -751 655 -166 79 -379 152 -490 168 -24 4 -47
8 -50 10 -13 8 -186 18 -283 17 -165 -2 -203 19 -268 153 -92 188 -182 310
-358 485 -209 208 -376 329 -626 456 -116 58 -267 122 -335 140 -218 58 -307
78 -415 90 -22 2 -56 7 -75 11 -32 5 -457 12 -463 7z"/>
</g>
</svg>
