<?xml version="1.0" encoding="UTF-8"?>
<svg id="Layer_2"
  xmlns="http://www.w3.org/2000/svg" viewBox="0 0 409.6 409.6" fill="currentColor">
  <path d="M0,176c3.11-5.55,8.13-6.2,13.79-5.6,9.16,.97,17.07,4.79,24.47,10.05,5.03,3.58,10.37,6.31,16.83,6.64,7.66,.39,14.5-1.4,20.65-5.94,9.59-7.08,20.09-11.43,32.26-10.95,3.49,.14,6.93,.59,10.22,1.65,2.66,.85,4.08,.29,5.27-2.34,14.04-31.3,32.67-59.81,53.46-86.96,21.35-27.87,44.88-53.8,70.23-78.08C248.9,2.82,250.92,1.48,252.8,0h6.4c2.46,2.04,5.05,3.93,7.35,6.14,13.35,12.85,26.29,26.1,38.57,39.98,23.17,26.21,44.49,53.79,62.67,83.74,12.83,21.14,23.85,43.12,31.75,66.61,4.95,14.7,8,29.79,10.06,45.13v28.8c-1.04,6.16-1.78,12.4-3.17,18.48-5.05,22.12-14.19,42.37-28.13,60.39-21.09,27.26-48.12,45.63-81.29,55.08-8.75,2.49-17.73,3.57-26.61,5.25h-28.8c-3.68-.55-7.37-1.01-11.02-1.66-34.48-6.1-63.66-21.96-87.65-47.49-7.32-7.78-17.2-11.85-26.33-16.92-2.64-1.47-5.9-1.54-8.97-1.68-7.54-.34-14.09,2.28-20.09,6.62-8.49,6.14-17.66,10.09-28.43,10.28-10.81,.2-20.51-2.56-29.28-8.81-5.8-4.13-11.83-7.86-19.24-8.03-4.67-.1-8.24-1.82-10.58-5.92v-6.4c3.11-5.55,8.13-6.19,13.8-5.6,9.17,.95,17.31,4.54,24.45,10.08,11.46,8.89,27.08,8.76,38.55,.02,12.62-9.62,26.81-12.61,42.29-8.7,6.3,1.59,12.01,4.6,17.05,8.54,11.73,9.17,27.49,8.98,39.24-.07,6.95-5.35,14.82-8.92,23.73-9.77,2.79-.27,5.57-.6,8.31,.34,3.71,1.28,6.43,4.75,6.21,8.41-.24,3.9-2.13,6.81-5.95,8.2-.5,.18-1.02,.46-1.53,.45-9.77-.13-17.54,4.64-25.15,10.01-3.26,2.31-6.99,3.84-10.82,5.09-1.02,.33-2.74-.06-2.86,1.57-.08,1.13,1.19,1.68,1.98,2.35,8.49,7.19,17.69,13.39,27.83,17.9,51.56,22.92,100.25,17.55,144.58-17.22,28.83-22.61,44.93-53.25,49.28-89.78,3.02-25.3-1.42-49.64-10.04-73.35-15.08-41.47-39.03-77.73-66.13-112.12-17.35-22.02-36.29-42.6-56.05-62.46-1.97-1.98-3.17-2.48-5.42-.22-35.5,35.61-67.83,73.77-94.13,116.79-7.44,12.18-14.05,24.8-20.07,37.75-1.36,2.93-.7,4.36,1.88,5.65,10.76,5.38,21.29,5.25,31.48-1.39,6.59-4.3,13-8.9,20.91-10.56,3.52-.74,7.06-1.43,10.68-1.28,5.53,.24,9.48,3.93,9.55,8.84,.08,4.72-3.55,8.74-8.92,9-7.48,.37-13.94,2.94-19.9,7.35-11.79,8.72-25,11.49-39.37,8.77-6.95-1.32-13.04-4.62-18.72-8.66-5.53-3.93-11.34-6.93-18.29-7.29-7.36-.38-13.93,1.72-19.91,5.91-6.69,4.69-13.58,8.94-21.89,10.22-12.58,1.94-24.49,.43-35.16-6.97-7.21-5-14.51-9.39-23.72-9.45-3.62-.02-5.98-2.62-7.8-5.59v-6.4Z"/>
  <path d="M0,227.2c3.11-5.55,8.13-6.2,13.8-5.59,9.16,.98,17.08,4.79,24.48,10.06,5.27,3.76,10.87,6.48,17.64,6.67,7.24,.2,13.67-1.59,19.52-5.78,7.67-5.49,15.79-9.93,25.42-10.85,2.79-.27,5.57-.58,8.31,.33,3.82,1.27,6.23,4.48,6.23,8.36,0,3.89-2.39,7.1-6.22,8.37-.38,.13-.77,.33-1.15,.33-10.06-.07-17.71,5.48-25.88,10.36-16.38,9.78-33.28,9.67-49.59-.25-7.91-4.81-15.37-10.04-25.16-10.11-3.46-.03-5.65-2.7-7.41-5.5v-6.4Z"/>
  <path d="M0,278.4c3.1-5.54,8.11-6.18,13.78-5.6,9.31,.94,17.33,4.9,24.8,10.22,5.3,3.78,10.92,6.6,17.65,6.5,1.04-.01,2.1,.33,3.13,.59,4.47,1.11,7.48,5.13,7.04,9.33-.47,4.44-3.92,7.73-8.56,7.98-9.66,.51-18.46-2.18-26.35-7.63-7.21-4.98-14.5-9.35-23.7-9.41-3.61-.02-5.97-2.63-7.78-5.58v-6.4Z"/>
  <path d="M155.63,307.64c-9.86,.31-18.72-2.72-26.67-8.27-7-4.88-14.17-8.73-23.05-9-4.98-.15-8.44-4.69-8.17-9.19,.3-4.82,4.07-8.39,9.43-8.51,9.21-.2,17.55,2.7,25.27,7.56,2.14,1.35,4.2,2.83,6.34,4.19,11.25,7.16,22.59,7.16,33.8,.03,6.19-3.93,12.12-8.33,19.36-10.16,13.69-3.45,26.67-1.66,38.86,5.57,3.89,2.31,7.73,4.73,11.73,6.84,3.19,1.69,6.68,2.65,10.35,2.71,.67,.01,1.33,.05,1.99,.13,6.57,.82,10.44,4.59,9.98,9.7-.48,5.37-4.42,8.22-11.19,8.23-9.11,.02-17.18-3.18-24.83-7.79-6.03-3.63-11.81-7.72-19.12-8.65-8-1.03-15.34,.3-22.04,4.95-7.36,5.12-14.94,9.84-24.1,11.03-2.63,.34-5.3,.43-7.95,.63Z"/>
  <path d="M253.79,256.21c-10.47,.56-19.47-3.08-27.85-8.69-4.75-3.18-9.35-6.55-15.26-7.52-8.42-1.37-16.12-.03-23.18,4.88-7.25,5.04-14.73,9.6-23.72,10.93-2.93,.43-5.84,.56-8.76,.37-4.29-.28-7.56-3.48-8.01-7.56-.5-4.47,1.88-8.19,6.13-9.57,.13-.04,.26-.09,.39-.09,11.09,.18,19.3-6.45,28.37-11.48,16.86-9.36,33.75-8.23,49.83,2.37,7.09,4.67,14.03,9,23.1,8.51,6.23-.34,11.7-2.13,16.73-5.67,7.69-5.41,15.75-9.98,25.37-10.96,2.93-.3,5.84-.62,8.69,.4,3.78,1.36,5.87,4.03,5.99,8.08,.12,4.01-2.12,7.16-5.98,8.49-.63,.22-1.28,.52-1.92,.51-9.33-.09-16.69,4.57-24.05,9.57-7.78,5.29-16.49,8.02-25.87,7.44Z"/>
</svg>