<?xml version="1.0" encoding="UTF-8"?>
<svg id="Layer_2"
  xmlns="http://www.w3.org/2000/svg" viewBox="0 0 224.42 449.03" fill="currentColor">
  <path d="M145.44,165.35c0,37.66,.05,75.32-.08,112.97-.01,3.71,1.17,6.06,4.01,8.44,20.17,16.88,31.23,38.46,33.12,64.8,3.37,47.01-30.87,91.12-82.06,96.92-48.13,5.46-94.07-30.95-99.7-79.32-3.88-33.38,7.43-60.86,32.81-82.58,3.01-2.57,3.44-5.29,3.44-8.73-.04-73.82-.1-147.63,.02-221.45,.04-21.71,9.21-38.61,28.24-49.54,34.51-19.83,79.71,5.76,80.08,45.52,.35,37.65,.07,75.32,.07,112.97h.04Zm-17.34,2.96h-.07c0-38.49,.27-76.99-.1-115.48-.24-24.6-24.93-41.51-48.26-33.71-15.75,5.27-25.33,18.79-25.34,36.25-.05,75.99-.07,151.97,.06,227.96,.01,6.24-1.99,10.45-7.07,14.33-23.47,17.92-33.4,41.97-29.32,71.08,5.42,38.68,41.02,66.24,80.37,62.58,35.61-3.31,68.02-33.25,67.16-75.72-.49-24.17-11.01-44.04-30.79-58.39-4.85-3.52-6.76-7.52-6.73-13.43,.17-38.49,.09-76.99,.09-115.48Z"/>
  <path d="M192.97,195.62c-6.98,0-13.97,.08-20.95-.02-6.05-.09-10.12-3.75-10.03-8.79,.09-4.74,4.09-8.42,9.89-8.48,14.3-.13,28.6-.16,42.89,.02,6.11,.08,9.6,3.49,9.62,8.57,.02,5.31-3.63,8.58-9.98,8.67-7.15,.11-14.3,.02-21.45,.03Z"/>
  <path d="M193.29,162.57c-6.82,0-13.63,.07-20.45-.02-6.67-.08-10.74-3.36-10.84-8.53-.1-5.07,4.17-8.75,10.6-8.8,13.8-.09,27.59-.09,41.39,0,6.8,.05,10.48,3.31,10.41,8.78-.07,5.41-3.75,8.44-10.67,8.54-6.81,.09-13.63,.02-20.45,.02Z"/>
  <path d="M193.02,228.68c-7.15,0-14.3,.08-21.44-.03-5.69-.09-9.39-3.31-9.59-8.05-.2-4.7,3.18-8.69,8.84-8.82,14.95-.34,29.91-.37,44.85-.07,5.74,.12,8.9,3.94,8.74,8.86-.17,4.89-3.65,7.99-9.45,8.09-7.31,.11-14.63,.03-21.94,.02Z"/>
  <path d="M193.56,79.06c7.15,0,14.29-.08,21.44,.02,5.62,.08,9.01,2.94,9.38,7.59,.4,5.02-2.57,8.83-8.29,9.17-15.26,.9-30.56,.86-45.82,.01-5.27-.29-8.52-4.29-8.29-8.81,.24-4.61,3.8-7.86,9.14-7.95,7.48-.13,14.96-.03,22.44-.03Z"/>
  <path d="M193.36,128.71c-7.33,0-14.66,.08-21.99-.03-5.65-.08-9.34-3.43-9.39-8.23-.05-4.82,3.64-8.36,9.21-8.4,14.66-.1,29.32-.09,43.99-.01,5.79,.03,9.19,3.21,9.24,8.23,.04,5.03-3.39,8.33-9.06,8.41-7.33,.11-14.66,.03-21.99,.02Z"/>
  <path d="M193.35,261.74c-7.33,0-14.66,.09-21.99-.03-5.7-.09-9.32-3.41-9.38-8.24-.06-4.81,3.64-8.36,9.21-8.4,14.83-.09,29.66-.1,44.48,0,5.35,.04,8.68,3.38,8.72,8.23,.04,4.87-3.23,8.27-8.56,8.38-7.49,.16-14.99,.04-22.49,.04v.02Z"/>
  <path d="M109.9,310.61c-4.52-1.77-5.96-4.05-5.94-8.76,.17-38.5,.09-77,.09-115.49h-.02c0-37.66,.01-75.33-.03-112.99,0-2.99-.17-6.01-.66-8.95-.81-4.87-3.79-7.97-8.5-9.51-4.82-1.57-8.83-.19-12.38,3.12-3.35,3.13-3.73,7.18-3.73,11.48,.04,76.66-.03,153.33,.16,229.99,.02,6.03-1.29,9.17-7.4,11.72-22.73,9.46-34.64,33.18-29.42,56.71,5.11,23.06,26.02,39.8,49.49,39.63,24.14-.17,44.41-17.43,49.12-41.81,4.43-22.9-8.5-46.39-30.79-55.13Zm19.21,46.88c.19,9.16-2.61,17.33-8.11,24.62-1.86,2.46-4.56,3.14-6.68,1.65-1.95-1.37-2.08-3.79-.58-6.44,7.56-13.26,7.54-26.55-.04-39.8-1.02-1.78-1.61-3.51-.36-5.35,1.01-1.49,2.42-2.21,4.28-1.95,1.35,.19,2.22,1.01,3,2.03,5.72,7.44,8.72,15.8,8.49,25.24Z"/>
</svg>